# Blender 4.1.1
# www.blender.org
mtllib terrain_test.mtl
o Cube
v 0.989103 -0.002361 -1.009693
v 1.256727 -0.250000 -1.000000
v 1.047471 0.000311 1.016207
v 1.348081 -0.250000 1.000000
v -0.984180 0.497278 -1.004320
v -0.998594 0.785527 1.006647
v -1.014632 -0.219561 5.338205
v -1.031923 1.387851 4.910366
v 1.020804 0.004926 5.015640
v 1.246198 -0.283589 5.593194
v 1.399192 -0.250317 -5.337054
v -1.255936 -0.223413 -5.830095
v 1.255814 0.008573 -5.151226
v -0.994998 1.280302 -5.237105
v -0.949737 0.608919 2.995368
v 1.505859 -0.250000 3.000000
v 0.924290 -0.006102 2.989495
v 1.421395 -0.250000 -3.000000
v 1.039948 -0.000823 -2.989182
v -1.023704 1.238200 -3.007716
v 1.071333 0.015221 -0.116591
v -0.938059 0.463905 -0.043161
v 1.406576 -0.250000 0.000000
v 0.765029 -0.077877 -2.090076
v 1.622216 -0.250000 -2.000000
v -0.654150 1.524081 -2.005764
v 1.256727 -0.250000 -4.000000
v -0.438011 1.240769 -3.985323
v 0.951570 -0.018792 -4.043617
v 1.554931 -0.250000 4.000000
v -1.020532 0.754351 4.008885
v 0.753527 -0.074516 3.963852
v -1.176614 0.730078 1.979761
v 1.381593 0.114567 2.025233
v 1.672940 -0.250000 2.000000
v -0.398635 0.560607 1.010700
v 0.917298 -0.005733 0.512067
v -0.957591 0.723449 -0.493113
v -0.224975 0.355664 -1.013637
v 0.076573 0.427727 4.808486
v -0.984978 1.381896 1.493704
v 0.851708 -0.007953 1.501846
v -0.242941 0.586098 -4.585113
v 0.908253 -0.004732 -1.506423
v -0.992958 1.137494 -4.469648
v -1.000923 0.652980 3.488078
v 0.946659 -0.002417 3.500324
v -0.258062 0.125706 2.964565
v 0.892949 -0.005683 -3.503209
v -1.001729 1.658424 -2.505843
v 0.020142 0.409867 -3.122139
v 0.976426 -0.004850 -0.484974
v -0.984147 0.540947 0.494507
v -0.103187 0.331696 -0.004835
v 0.972610 -0.003361 -2.522959
v -1.003726 0.769174 -1.505752
v -0.163232 0.607709 -1.972817
v -1.005183 0.790208 -3.498103
v 1.024108 -0.000559 -4.492487
v -0.001780 0.681526 -3.991133
v -1.036515 0.819954 4.535531
v 0.990836 -0.000593 4.482604
v -0.025733 0.516753 4.080989
v -0.970230 0.748729 2.502141
v 1.021994 0.003017 2.481336
v 0.227911 0.748471 2.055158
v -0.072511 0.646109 1.540250
v -0.102244 0.177572 3.522846
v 0.037794 0.405862 -3.543080
v -0.189919 0.614111 -1.501978
v -0.198788 0.433066 -0.506979
v -0.010507 0.677206 -2.545870
v -0.069835 0.673461 2.506857
v -0.083122 0.653644 -4.354112
v 0.026395 0.723766 4.657862
v -0.276911 0.394726 0.504704
v -0.014839 -0.278887 -5.767765
v 1.369627 -0.126156 -5.267301
v -0.958205 0.553305 -5.271594
v 0.342455 0.310023 -4.814463
v -0.659297 0.777306 -4.736789
v -0.877420 0.548865 4.722644
v 1.148117 -0.124941 5.217029
v -0.599421 0.772631 4.739164
v 0.017265 -0.251013 5.490423
v 0.570111 0.371633 5.131484
vn 0.1990 0.9444 -0.2617
vn 0.6251 0.7617 -0.1705
vn 0.5836 0.8015 0.1303
vn -0.0855 0.0327 0.9958
vn -0.0627 0.4441 0.8938
vn 0.7502 0.6594 -0.0490
vn 0.2396 0.5183 -0.8210
vn 0.3559 0.9243 0.1380
vn 0.3838 0.9190 0.0903
vn 0.3892 0.5082 0.7683
vn 0.5426 0.7727 -0.3296
vn 0.5466 0.8332 0.0835
vn 0.6503 0.7308 -0.2074
vn 0.1466 0.9747 0.1689
vn 0.2113 0.9621 -0.1724
vn 0.4909 0.8711 0.0160
vn 0.5570 0.7284 0.3989
vn 0.5991 0.7994 0.0456
vn 0.1982 0.9526 0.2307
vn 0.4168 0.7503 -0.5131
vn -0.0025 0.9811 -0.1936
vn 0.5532 0.4888 -0.6745
vn 0.4435 0.6622 -0.6040
vn 0.3561 0.9208 0.1592
vn 0.3314 0.8778 -0.3458
vn 0.1696 0.9606 0.2201
vn 0.1688 0.9855 -0.0145
vn 0.5507 0.8029 -0.2283
vn 0.4443 0.3379 0.8297
vn 0.4619 0.6634 -0.5886
vn 0.4333 0.9012 0.0096
vn 0.5067 0.3005 0.8080
vn 0.1636 0.8699 0.4653
vn 0.4412 0.7797 0.4443
vn 0.2481 0.9617 -0.1163
vn 0.2828 0.9591 0.0114
vn 0.1792 0.9711 -0.1576
vn 0.5826 0.6104 -0.5366
vn 0.6695 0.6878 -0.2806
vn 0.5483 0.8002 0.2432
vn 0.1099 0.9932 0.0390
vn 0.4522 0.7161 0.5317
vn -0.0210 0.9884 0.1503
vn 0.5057 0.6685 -0.5453
vn 0.5456 0.4330 -0.7175
vn 0.5744 0.7962 -0.1899
vn 0.3082 0.8976 -0.3151
vn 0.5313 0.7702 -0.3528
vn 0.2416 0.9062 -0.3470
vn 0.3171 0.9438 -0.0932
vn 0.2676 0.9586 0.0975
vn 0.1591 0.9849 -0.0676
vn 0.3241 0.8572 -0.4002
vn 0.4694 0.8826 0.0275
vn 0.5752 0.8007 0.1676
vn 0.5874 0.7992 0.1274
vn 0.9791 0.1746 0.1043
vn 0.8405 0.4499 0.3019
vn -0.0082 0.9206 0.3904
vn 0.0327 0.8493 0.5270
vn -0.4391 -0.7126 0.5472
vn -0.0339 0.9079 0.4177
vn 0.0692 0.5593 0.8261
vn 0.1024 -0.1992 0.9746
vn 0.0090 0.6242 0.7812
vn 0.4096 0.5002 -0.7629
vn 0.3858 0.6186 -0.6844
vn 0.6545 0.7425 0.1425
vn 0.2180 0.9473 -0.2347
vn 0.4437 0.8944 0.0564
vn 0.0647 0.8380 -0.5419
vn 0.3699 0.4448 -0.8157
vn 0.8586 0.0676 -0.5082
vn 0.5055 0.6580 -0.5581
vn 0.2877 0.8944 -0.3424
vn 0.0751 0.8355 -0.5443
vn 0.1644 0.7199 -0.6744
vn 0.2449 0.8718 -0.4243
vn 0.4810 0.8551 -0.1936
vn 0.4045 0.9120 0.0676
vn 0.6360 0.4657 0.6153
vn 0.0788 0.9600 0.2688
vn 0.3664 0.9286 0.0580
vn 0.7450 0.4986 0.4431
vn 0.2008 0.9788 -0.0403
vn 0.5635 0.8218 -0.0844
vn 0.6786 0.7342 0.0199
vn 0.3243 0.8254 0.4620
vn 0.6770 0.7272 -0.1137
vn 0.4129 0.8982 0.1509
vn 0.5577 0.7956 -0.2366
vn 0.4326 0.9013 0.0251
vn 0.5365 0.8283 -0.1613
vn 0.4793 0.8741 -0.0789
vn 0.3904 0.9205 -0.0192
vn 0.3870 0.9218 -0.0236
vn 0.2407 0.9544 -0.1767
vn 0.3543 0.4898 0.7966
vn 0.3424 0.9329 -0.1112
vn 0.6255 0.7340 0.2646
vn 0.4308 0.8034 -0.4111
vn 0.5086 0.7440 -0.4333
vn 0.4778 0.5491 -0.6857
vn 0.4727 0.7228 -0.5041
vn 0.1125 0.9860 -0.1230
vn 0.4683 0.8830 -0.0303
vn 0.3222 0.8187 0.4753
vn 0.3460 0.9382 0.0056
vn 0.3842 0.9156 -0.1185
vn 0.1872 0.9823 -0.0027
vn 0.1674 0.8664 0.4705
vn 0.2826 0.9579 -0.0506
vn 0.3445 0.9308 0.1223
vn 0.3473 0.9241 -0.1591
vn 0.3217 0.8596 -0.3970
vn 0.5667 0.7585 -0.3218
vn 0.8419 0.4611 0.2803
vn 0.5768 0.7127 0.3993
vn 0.3435 0.5299 0.7754
vn 0.4445 0.7890 0.4241
vn 0.0835 0.9942 -0.0685
vn 0.7698 0.6279 0.1148
vn 0.4631 0.7632 -0.4506
vn 0.4795 0.8602 -0.1735
vn 0.5160 0.8484 0.1179
vn 0.6238 0.7804 -0.0432
vn 0.4816 0.4609 0.7454
vn 0.5283 0.7829 -0.3287
vn 0.1032 0.9874 -0.1199
vn 0.3537 0.9107 -0.2135
vn 0.3180 0.9481 -0.0089
vn 0.2026 0.9716 -0.1219
vt 0.875000 0.687500
vt 0.750000 0.750000
vt 0.750000 0.687500
vt 0.625000 0.687500
vt 0.625000 0.750000
vt 0.375000 0.750000
vt 0.375000 0.500000
vt 0.500000 0.500000
vt 0.625000 0.500000
vt 0.625000 0.875000
vt 0.625000 0.937500
vt 0.500000 1.000000
vt 0.875000 0.750000
vt 0.500000 0.750000
vt 0.375000 0.375000
vt 0.687500 0.500000
vt 0.750000 0.500000
vt 0.625000 0.562500
vt 0.625000 0.625000
vt 0.375000 0.625000
vt 0.750000 0.562500
vt 0.875000 0.625000
vt 0.750000 0.625000
vt 0.875000 0.500000
vt 0.812500 0.500000
vt 0.687500 0.750000
vt 0.375000 0.875000
vt 0.625000 0.812500
vt 0.375000 1.000000
vt 0.625000 1.000000
vt 0.812500 0.750000
vt 0.375000 0.250000
vt 0.625000 0.437500
vt 0.500000 0.250000
vt 0.625000 0.250000
vt 0.625000 0.312500
vt 0.625000 0.375000
vt 0.875000 0.562500
s 0
usemtl Material
f 53/1/1 36/2/1 76/3/1
f 37/4/2 3/5/2 4/6/2
f 27/7/3 78/8/3 59/9/3
f 40/10/4 84/11/4 82/12/4
f 75/2/5 61/13/5 40/2/5
f 62/5/6 9/5/6 83/14/6
f 78/8/7 11/7/7 77/15/7
f 59/9/8 13/9/8 80/16/8
f 65/5/9 17/5/9 16/6/9
f 73/2/10 15/13/10 48/2/10
f 55/9/11 51/17/11 72/17/11
f 18/7/12 19/9/12 55/9/12
f 52/18/13 21/19/13 23/20/13
f 71/21/14 22/22/14 54/23/14
f 25/7/15 24/9/15 44/9/15
f 44/9/16 57/17/16 70/17/16
f 69/17/17 29/9/17 60/17/17
f 27/7/18 29/9/18 49/9/18
f 47/5/19 32/5/19 30/6/19
f 46/13/20 63/2/20 68/2/20
f 67/2/21 33/13/21 66/2/21
f 42/5/22 34/5/22 35/6/22
f 67/2/23 34/5/23 42/5/23
f 36/2/24 42/5/24 3/5/24
f 6/13/25 67/2/25 36/2/25
f 68/2/26 32/5/26 47/5/26
f 17/5/27 68/2/27 47/5/27
f 15/13/28 68/2/28 48/2/28
f 58/24/29 60/17/29 28/24/29
f 51/17/30 58/24/30 20/24/30
f 51/17/31 49/9/31 69/17/31
f 56/24/32 57/17/32 26/24/32
f 5/24/33 70/17/33 56/24/33
f 39/17/34 44/9/34 70/17/34
f 52/18/35 54/23/35 21/19/35
f 39/17/36 52/18/36 1/9/36
f 5/24/37 71/21/37 39/17/37
f 72/17/38 20/24/38 50/24/38
f 26/24/39 72/17/39 50/24/39
f 57/17/40 55/9/40 72/17/40
f 65/5/41 48/2/41 17/5/41
f 34/5/42 73/2/42 65/5/42
f 33/13/43 73/2/43 66/2/43
f 74/17/44 43/17/44 81/25/44
f 60/17/45 45/24/45 28/24/45
f 29/9/46 74/17/46 60/17/46
f 40/2/47 86/26/47 62/5/47
f 63/2/48 62/5/48 32/5/48
f 31/13/49 75/2/49 63/2/49
f 76/3/50 3/5/50 37/4/50
f 54/23/51 37/4/51 21/19/51
f 22/22/52 76/3/52 54/23/52
f 53/1/53 6/13/53 36/2/53
f 4/6/54 23/20/54 37/4/54
f 23/20/55 21/19/55 37/4/55
f 59/9/56 29/9/56 27/7/56
f 27/7/57 11/7/57 78/8/57
f 78/8/58 13/9/58 59/9/58
f 85/27/59 10/6/59 83/14/59
f 83/14/60 9/5/60 85/27/60
f 9/5/61 86/28/61 40/10/61
f 85/27/62 9/5/62 7/29/62
f 9/5/63 40/10/63 7/29/63
f 84/11/64 8/30/64 82/12/64
f 82/12/65 7/29/65 40/10/65
f 61/13/66 8/13/66 84/31/66
f 61/13/67 84/31/67 40/2/67
f 10/6/68 30/6/68 83/14/68
f 30/6/69 32/5/69 62/5/69
f 83/14/70 30/6/70 62/5/70
f 77/15/71 12/32/71 80/33/71
f 12/32/72 79/34/72 80/33/72
f 79/34/73 14/35/73 81/36/73
f 81/36/74 43/37/74 79/34/74
f 43/37/75 80/33/75 79/34/75
f 80/33/76 13/9/76 77/15/76
f 13/9/77 78/8/77 77/15/77
f 43/17/78 74/17/78 80/16/78
f 74/17/79 59/9/79 80/16/79
f 16/6/80 35/6/80 65/5/80
f 35/6/81 34/5/81 65/5/81
f 73/2/82 64/13/82 15/13/82
f 55/9/83 19/9/83 51/17/83
f 55/9/84 24/9/84 18/7/84
f 24/9/85 25/7/85 18/7/85
f 23/20/86 2/7/86 52/18/86
f 2/7/87 1/9/87 52/18/87
f 71/21/88 38/38/88 22/22/88
f 44/9/89 1/9/89 2/7/89
f 2/7/90 25/7/90 44/9/90
f 44/9/91 24/9/91 57/17/91
f 69/17/92 49/9/92 29/9/92
f 49/9/93 19/9/93 18/7/93
f 18/7/94 27/7/94 49/9/94
f 30/6/95 16/6/95 47/5/95
f 16/6/96 17/5/96 47/5/96
f 46/13/97 31/13/97 63/2/97
f 67/2/98 41/13/98 33/13/98
f 35/6/99 4/6/99 42/5/99
f 4/6/100 3/5/100 42/5/100
f 67/2/101 66/2/101 34/5/101
f 36/2/102 67/2/102 42/5/102
f 6/13/103 41/13/103 67/2/103
f 68/2/104 63/2/104 32/5/104
f 17/5/105 48/2/105 68/2/105
f 15/13/106 46/13/106 68/2/106
f 58/24/107 69/17/107 60/17/107
f 51/17/108 69/17/108 58/24/108
f 51/17/109 19/9/109 49/9/109
f 56/24/110 70/17/110 57/17/110
f 5/24/111 39/17/111 70/17/111
f 39/17/112 1/9/112 44/9/112
f 52/18/113 71/21/113 54/23/113
f 39/17/114 71/21/114 52/18/114
f 5/24/115 38/38/115 71/21/115
f 72/17/116 51/17/116 20/24/116
f 26/24/117 57/17/117 72/17/117
f 57/17/118 24/9/118 55/9/118
f 65/5/119 73/2/119 48/2/119
f 34/5/120 66/2/120 73/2/120
f 33/13/121 64/13/121 73/2/121
f 14/24/122 45/24/122 81/25/122
f 45/24/123 74/17/123 81/25/123
f 60/17/124 74/17/124 45/24/124
f 29/9/125 59/9/125 74/17/125
f 9/5/126 62/5/126 86/26/126
f 62/5/127 75/2/127 40/2/127
f 63/2/128 75/2/128 62/5/128
f 31/13/129 61/13/129 75/2/129
f 76/3/130 36/2/130 3/5/130
f 54/23/131 76/3/131 37/4/131
f 22/22/132 53/1/132 76/3/132
